# File created by Blade
# Date/Time:  Thu Sep 25 17:54:10 2014
# Frame Rate: 120.000 fps
#------------------------------------------------------
:FULLY-SPECIFIED
:DEGREES
1945
root -0.195388 32.507395 -6.583742 24.653128 1.281021 -0.205287
Spine -31.996521 21.193222 -11.337041
Head -3.765914 -21.176767 -9.951066
LeftShoulder -2.207579 -4.763189 40.087270
LeftArm 60.869943 15.618399 -108.932748
LeftForeArm -4.447509 -0.000000 135.348430
LeftHand -32.820263 -0.000000 41.210285
LeftHandThumb1 -26.253704 0.000000 33.147579
RightShoulder -4.177694 45.701291 -65.474506
RightArm 96.199141 -27.918059 84.648139
RightForeArm -7.166007 -0.000000 104.766938
RightHand 4.140021 0.000000 7.654912
RightHandThumb1 -24.326973 -0.000000 -32.862282
LeftUpLeg -19.945528 3.704667 0.832491
LeftLeg 0.089101 -0.000000 -0.000000
LeftFoot -5.853375 -1.309108 -2.052109
LeftToeBase 3.379911 -0.000000 -0.000000
RightUpLeg -19.331415 -7.981752 4.688227
RightLeg -1.573706 -0.000000 0.000000
RightFoot -8.084602 -0.447129 11.343443
RightToeBase 16.320353 -0.000000 -0.000000
1946
root -0.193112 32.508053 -6.584863 24.638202 1.319635 -0.201805
Spine -31.940253 21.075820 -11.227015
Head -3.926694 -21.077677 -9.898190
LeftShoulder -2.135306 -4.768183 40.103034
LeftArm 60.835895 15.727618 -108.868622
LeftForeArm -4.478792 0.000000 135.141748
LeftHand -32.709077 -0.000000 41.159617
LeftHandThumb1 -26.253704 0.000000 33.147579
RightShoulder -4.204566 45.663351 -65.488666
RightArm 96.147806 -27.964357 84.560086
RightForeArm -6.972146 0.000000 104.566694
RightHand 4.209899 0.000000 7.852130
RightHandThumb1 -24.326973 -0.000000 -32.862282
LeftUpLeg -19.933889 3.688858 0.831915
LeftLeg 0.080559 -0.000000 -0.000000
LeftFoot -5.842779 -1.317715 -2.035773
LeftToeBase 3.393640 -0.000000 -0.000000
RightUpLeg -19.372992 -8.169048 4.749743
RightLeg -1.483510 -0.000000 0.000000
RightFoot -8.069043 -0.265648 11.401319
RightToeBase 16.257184 -0.000000 -0.000000
1947
root -0.192826 32.508015 -6.587447 24.635731 1.329394 -0.197847
Spine -31.911226 20.982435 -11.168867
Head -4.098263 -20.997892 -9.799283
LeftShoulder -2.055108 -4.796012 40.150158
LeftArm 60.828297 15.841772 -108.809713
LeftForeArm -4.538415 0.000000 134.897460
LeftHand -32.746027 0.000000 41.164501
LeftHandThumb1 -26.253704 0.000000 33.147579
RightShoulder -4.246518 45.634537 -65.490895
RightArm 96.033807 -27.971397 84.466194
RightForeArm -6.933526 -0.000000 104.436875
RightHand 4.296768 0.000000 7.958212
RightHandThumb1 -24.326973 -0.000000 -32.862282
LeftUpLeg -19.932970 3.696770 0.823851
LeftLeg 0.069395 -0.000000 -0.000000
LeftFoot -5.829458 -1.335973 -2.027953
LeftToeBase 3.407719 -0.000000 -0.000000
RightUpLeg -19.320849 -8.038800 4.695534
RightLeg -1.580710 -0.000000 0.000000
RightFoot -8.019514 -0.435493 11.390095
RightToeBase 16.146229 -0.000000 -0.000000
1948
root -0.192631 32.508553 -6.588748 24.626616 1.369506 -0.199717
Spine -31.866940 20.837959 -11.060357
Head -4.259857 -20.856847 -9.731487
LeftShoulder -1.978762 -4.734167 40.166740
LeftArm 60.898425 15.993635 -108.678915
LeftForeArm -4.449004 -0.000000 134.641920
LeftHand -32.726043 -0.000000 41.007357
LeftHandThumb1 -26.253704 0.000000 33.147579
RightShoulder -4.271908 45.597944 -65.484975
RightArm 95.958382 -27.972526 84.365553
RightForeArm -6.958814 -0.000000 104.307859
RightHand 4.258896 -0.000000 8.108014
RightHandThumb1 -24.326973 -0.000000 -32.862282
LeftUpLeg -19.921089 3.679705 0.834468
LeftLeg 0.047252 -0.000000 -0.000000
LeftFoot -5.801351 -1.350194 -2.026161
LeftToeBase 3.350040 -0.000000 -0.000000
RightUpLeg -19.302844 -8.029280 4.694991
RightLeg -1.581974 -0.000000 0.000000
RightFoot -8.099950 -0.489120 11.308476
RightToeBase 16.381251 -0.000000 -0.000000
1949
root -0.192293 32.508905 -6.590505 24.611815 1.404389 -0.200651
Spine -31.819424 20.706101 -10.966177
Head -4.424933 -20.737548 -9.647046
LeftShoulder -1.902154 -4.670919 40.196403
LeftArm 60.998925 16.176191 -108.499482
LeftForeArm -4.365891 0.000000 134.415907
LeftHand -32.751746 -0.000000 40.923897
LeftHandThumb1 -26.253704 0.000000 33.147579
RightShoulder -4.330451 45.520467 -65.501987
RightArm 95.862932 -27.985056 84.286361
RightForeArm -7.032821 -0.000000 104.226578
RightHand 4.117253 -0.000000 8.204596
RightHandThumb1 -24.326973 -0.000000 -32.862282
LeftUpLeg -19.907333 3.664389 0.842698
LeftLeg 0.029658 -0.000000 -0.000000
LeftFoot -5.785659 -1.358277 -2.014323
LeftToeBase 3.353463 -0.000000 -0.000000
RightUpLeg -19.294966 -8.058475 4.704726
RightLeg -1.571056 -0.000000 0.000000
RightFoot -8.092943 -0.477072 11.343544
RightToeBase 16.385883 -0.000000 -0.000000
1950
root -0.190960 32.509326 -6.592604 24.598232 1.432554 -0.197547
Spine -31.777938 20.590049 -10.881206
Head -4.572089 -20.695310 -9.574742
LeftShoulder -1.792270 -4.673532 40.235264
LeftArm 61.030600 16.306962 -108.386215
LeftForeArm -4.370442 -0.000000 134.171473
LeftHand -32.658492 -0.000000 41.016231
LeftHandThumb1 -26.253704 0.000000 33.147579
RightShoulder -4.401217 45.465640 -65.531505
RightArm 95.716977 -27.997005 84.216026
RightForeArm -7.139086 0.000000 104.133851
RightHand 4.307110 -0.000000 8.417517
RightHandThumb1 -24.326973 -0.000000 -32.862282
LeftUpLeg -19.901868 3.676538 0.834282
LeftLeg 0.028635 -0.000000 -0.000000
LeftFoot -5.780545 -1.391919 -1.987923
LeftToeBase 3.371772 -0.000000 -0.000000
RightUpLeg -19.287515 -8.073982 4.705501
RightLeg -1.565232 -0.000000 0.000000
RightFoot -8.092282 -0.480651 11.382572
RightToeBase 16.408906 -0.000000 -0.000000
1951
root -0.189999 32.509709 -6.594462 24.573774 1.463744 -0.193292
Spine -31.720495 20.455327 -10.778160
Head -4.716064 -20.647045 -9.515591
LeftShoulder -1.659860 -4.619243 40.262314
LeftArm 61.111686 16.454053 -108.219911
LeftForeArm -4.249788 -0.000000 133.988095
LeftHand -32.642764 -0.000000 40.753004
LeftHandThumb1 -26.253704 0.000000 33.147579
RightShoulder -4.425110 45.451242 -65.509885
RightArm 95.583055 -28.024285 84.166144
RightForeArm -7.135767 0.000000 104.007093
RightHand 4.214547 0.000000 8.651870
RightHandThumb1 -24.326973 -0.000000 -32.862282
LeftUpLeg -19.876663 3.659522 0.837626
LeftLeg 0.011380 -0.000000 -0.000000
LeftFoot -5.755070 -1.407768 -1.996371
LeftToeBase 3.370942 -0.000000 -0.000000
RightUpLeg -19.267003 -8.096294 4.707942
RightLeg -1.566736 -0.000000 0.000000
RightFoot -8.070720 -0.534930 11.312195
RightToeBase 16.305768 -0.000000 -0.000000
1952
root -0.188528 32.510248 -6.596804 24.552381 1.496921 -0.195132
Spine -31.666049 20.310919 -10.657875
Head -4.838376 -20.607935 -9.465573
LeftShoulder -1.521749 -4.532895 40.279454
LeftArm 61.219537 16.587336 -108.069249
LeftForeArm -4.325247 -0.000000 133.858350
LeftHand -32.616069 0.000000 40.572488
LeftHandThumb1 -26.253704 0.000000 33.147579
RightShoulder -4.436382 45.461780 -65.499235
RightArm 95.407760 -28.064495 84.141167
RightForeArm -7.172171 0.000000 103.872150
RightHand 4.332583 -0.000000 8.785256
RightHandThumb1 -24.326973 -0.000000 -32.862282
LeftUpLeg -19.861054 3.665735 0.841173
LeftLeg 0.008225 -0.000000 -0.000000
LeftFoot -5.806505 -1.495720 -2.147859
LeftToeBase 3.614546 -0.000000 -0.000000
RightUpLeg -19.257133 -8.124237 4.716866
RightLeg -1.550995 -0.000000 0.000000
RightFoot -8.072843 -0.552076 11.233592
RightToeBase 16.312561 -0.000000 -0.000000
1953
root -0.187595 32.510722 -6.599817 24.531433 1.512728 -0.199392
Spine -31.602266 20.153902 -10.520588
Head -4.984361 -20.509053 -9.416693
LeftShoulder -1.408762 -4.437032 40.302390
LeftArm 61.304353 16.699744 -107.984492
LeftForeArm -4.340941 -0.000000 133.734926
LeftHand -32.661964 -0.000000 40.375919
LeftHandThumb1 -26.253704 0.000000 33.147579
RightShoulder -4.430177 45.485817 -65.495127
RightArm 95.274445 -28.085714 84.095397
RightForeArm -7.179602 0.000000 103.759079
RightHand 4.426373 -0.000000 8.721531
RightHandThumb1 -24.326973 -0.000000 -32.862282
LeftUpLeg -19.841048 3.687271 0.833998
LeftLeg -0.017488 -0.000000 0.000000
LeftFoot -5.729349 -1.472223 -1.986797
LeftToeBase 3.388913 -0.000000 -0.000000
RightUpLeg -19.242436 -8.109881 4.712577
RightLeg -1.538617 -0.000000 0.000000
RightFoot -8.102615 -0.546855 11.317950
RightToeBase 16.394353 -0.000000 -0.000000
1954
root -0.186231 32.511573 -6.602548 24.500167 1.542908 -0.196884
Spine -31.520212 19.971057 -10.370623
Head -5.130497 -20.424863 -9.362533
LeftShoulder -1.272435 -4.260263 40.323910
LeftArm 61.456429 16.795434 -107.879922
LeftForeArm -4.535473 -0.000000 133.586979
LeftHand -32.271898 -0.000000 40.079224
LeftHandThumb1 -26.253704 0.000000 33.147579
RightShoulder -4.388082 45.480278 -65.456321
RightArm 95.194970 -28.110959 84.025345
RightForeArm -7.063160 -0.000000 103.627367
RightHand 4.548762 0.000000 8.643874
RightHandThumb1 -24.326973 -0.000000 -32.862282
LeftUpLeg -19.814948 3.687729 0.833449
LeftLeg -0.025580 -0.000000 0.000000
LeftFoot -5.713151 -1.504819 -1.985486
LeftToeBase 3.413504 -0.000000 -0.000000
RightUpLeg -19.216342 -8.138575 4.714092
RightLeg -1.537249 -0.000000 0.000000
RightFoot -8.069252 -0.537368 11.346548
RightToeBase 16.309733 -0.000000 -0.000000
1955
root -0.184913 32.512344 -6.605863 24.477843 1.558003 -0.199234
Spine -31.444588 19.801596 -10.221910
Head -5.307720 -20.288580 -9.317795
LeftShoulder -1.191060 -4.189607 40.343367
LeftArm 61.519926 16.877405 -107.871720
LeftForeArm -4.570213 0.000000 133.454757
LeftHand -32.304126 -0.000000 39.943096
LeftHandThumb1 -26.253704 0.000000 33.147579
RightShoulder -4.358567 45.445616 -65.430240
RightArm 95.137833 -28.129873 83.952222
RightForeArm -6.894903 -0.000000 103.457301
RightHand 4.495882 -0.000000 8.887256
RightHandThumb1 -24.326973 -0.000000 -32.862282
LeftUpLeg -19.801930 3.726358 0.820851
LeftLeg -0.028167 -0.000000 0.000000
LeftFoot -5.689728 -1.556440 -1.975593
LeftToeBase 3.399076 -0.000000 -0.000000
RightUpLeg -19.184022 -8.114557 4.701498
RightLeg -1.572441 -0.000000 0.000000
RightFoot -7.998007 -0.578349 11.427788
RightToeBase 16.153105 -0.000000 -0.000000
1956
root -0.183054 32.513522 -6.608395 24.430156 1.596805 -0.195942
Spine -31.344784 19.611388 -10.075394
Head -5.447386 -20.245856 -9.244898
LeftShoulder -1.072911 -4.112578 40.377347
LeftArm 61.604878 16.985314 -107.843545
LeftForeArm -4.392696 0.000000 133.310061
LeftHand -32.155016 -0.000000 39.679663
LeftHandThumb1 -26.253704 0.000000 33.147579
RightShoulder -4.316694 45.414034 -65.352973
RightArm 95.061173 -28.161604 83.856812
RightForeArm -6.692940 -0.000000 103.332035
RightHand 4.439358 -0.000000 8.951084
RightHandThumb1 -24.326973 -0.000000 -32.862282
LeftUpLeg -19.754242 3.708487 0.826295
LeftLeg -0.050838 -0.000000 0.000000
LeftFoot -5.659359 -1.575436 -1.969689
LeftToeBase 3.399645 -0.000000 -0.000000
RightUpLeg -19.156670 -8.189599 4.720035
RightLeg -1.534748 -0.000000 0.000000
RightFoot -8.061152 -0.551898 11.306028
RightToeBase 16.366623 -0.000000 -0.000000
1957
root -0.181040 32.514558 -6.610887 24.386306 1.615714 -0.196356
Spine -31.246696 19.418903 -9.913495
Head -5.593751 -20.124039 -9.190494
LeftShoulder -1.004526 -4.042851 40.384810
LeftArm 61.699438 17.091186 -107.792747
LeftForeArm -4.167652 -0.000000 133.158272
LeftHand -32.418444 0.000000 39.470788
LeftHandThumb1 -26.253704 0.000000 33.147579
RightShoulder -4.218299 45.330146 -65.260693
RightArm 95.060384 -28.148035 83.740374
RightForeArm -6.440896 -0.000000 103.208611
RightHand 4.451885 -0.000000 9.146924
RightHandThumb1 -24.326973 -0.000000 -32.862282
LeftUpLeg -19.711198 3.722113 0.822023
LeftLeg -0.065412 -0.000000 0.000000
LeftFoot -5.639402 -1.609831 -1.970619
LeftToeBase 3.409376 -0.000000 -0.000000
RightUpLeg -19.111456 -8.209275 4.716326
RightLeg -1.549567 -0.000000 0.000000
RightFoot -8.002764 -0.523963 11.439113
RightToeBase 16.244205 -0.000000 -0.000000
